<svg xmlns="http://www.w3.org/2000/svg" xmlns:xlink="http://www.w3.org/1999/xlink" width="705.553" height="820.915" viewBox="0 0 705.553 820.915">
  <defs>
    <filter id="comment3" x="109.275" y="0" width="596.278" height="288.654" filterUnits="userSpaceOnUse">
      <feOffset dx="75" dy="95" input="SourceAlpha"/>
      <feGaussianBlur result="blur"/>
      <feFlood flood-opacity="0.161"/>
      <feComposite operator="in" in2="blur"/>
      <feComposite in="SourceGraphic"/>
    </filter>
    <filter id="comment2" x="184.883" y="239.985" width="486.184" height="251.292" filterUnits="userSpaceOnUse">
      <feOffset dx="75" dy="95" input="SourceAlpha"/>
      <feGaussianBlur result="blur-2"/>
      <feFlood flood-opacity="0.161"/>
      <feComposite operator="in" in2="blur-2"/>
      <feComposite in="SourceGraphic"/>
    </filter>
    <filter id="comment1" x="33.297" y="358.805" width="613.274" height="462.111" filterUnits="userSpaceOnUse">
      <feOffset dx="75" dy="95" input="SourceAlpha"/>
      <feGaussianBlur result="blur-3"/>
      <feFlood flood-opacity="0.161"/>
      <feComposite operator="in" in2="blur-3"/>
      <feComposite in="SourceGraphic"/>
    </filter>
  </defs>
  <g id="chat_image" transform="matrix(0.843, 0.089, -0.177, 0.977, 48.61, -9.067)">
    <g id="response3" transform="translate(64.687)">
      <g transform="matrix(1.16, -0.11, 0.21, 1, -119.34, 14.24)" filter="url(#comment3)">
        <path id="comment3-2" data-name="comment3" d="M68.493,0h443.8A47.978,47.978,0,0,1,560.27,47.978v75.966a47.978,47.978,0,0,1-47.978,47.978l-510.854.611c-26.5,0,19.077-22.092,19.077-48.59V47.978A47.978,47.978,0,0,1,68.493,0Z" transform="matrix(0.84, 0.09, -0.18, 0.98, 108.94, -2.73)" fill="#fff"/>
      </g>
      <g id="line8" transform="matrix(1, 0, 0, 1, 79.334, 31.985)" fill="#707070" stroke="#707070" stroke-width="1">
        <rect width="331.85" height="7.996" stroke="none"/>
        <rect x="0.5" y="0.5" width="330.85" height="6.996" fill="none"/>
      </g>
      <g id="line7" transform="matrix(1, 0, 0, 1, 79.334, 63.971)" fill="#707070" stroke="#707070" stroke-width="1">
        <rect width="143.935" height="7.996" stroke="none"/>
        <rect x="0.5" y="0.5" width="142.935" height="6.996" fill="none"/>
      </g>
      <g id="line6" transform="matrix(1, 0, 0, 1, 259.252, 63.971)" fill="#707070" stroke="#707070" stroke-width="1">
        <rect width="255.884" height="7.996" stroke="none"/>
        <rect x="0.5" y="0.5" width="254.884" height="6.996" fill="none"/>
      </g>
      <g id="line5" transform="matrix(1, 0, 0, 1, 79.334, 95.956)" fill="#707070" stroke="#707070" stroke-width="1">
        <rect width="435.802" height="7.996" stroke="none"/>
        <rect x="0.5" y="0.5" width="434.802" height="6.996" fill="none"/>
      </g>
      <g id="line4" transform="matrix(1, 0, 0, 1, 79.334, 127.942)" fill="#707070" stroke="#707070" stroke-width="1">
        <rect width="55.975" height="7.996" stroke="none"/>
        <rect x="0.5" y="0.5" width="54.975" height="6.996" fill="none"/>
      </g>
      <g id="line3" transform="matrix(1, 0, 0, 1, 171.292, 127.942)" fill="#707070" stroke="#707070" stroke-width="1">
        <rect width="147.933" height="7.996" stroke="none"/>
        <rect x="0.5" y="0.5" width="146.933" height="6.996" fill="none"/>
      </g>
      <g id="line2" transform="matrix(1, 0, 0, 1, 363.205, 127.942)" fill="#707070" stroke="#707070" stroke-width="1">
        <rect width="151.931" height="7.996" stroke="none"/>
        <rect x="0.5" y="0.5" width="150.931" height="6.996" fill="none"/>
      </g>
      <g id="line1" transform="matrix(1, 0, 0, 1, 447.167, 31.985)" fill="#707070" stroke="#707070" stroke-width="1">
        <rect width="67.969" height="7.996" stroke="none"/>
        <rect x="0.5" y="0.5" width="66.969" height="6.996" fill="none"/>
      </g>
      <path id="user3" d="M34.139,0A34.139,34.139,0,1,0,68.277,34.139,34.133,34.133,0,0,0,34.139,0Zm0,61.67A27.531,27.531,0,1,1,61.67,34.139,27.559,27.559,0,0,1,34.139,61.67ZM48.675,40.829a51.092,51.092,0,0,1-14.536,1.8,51.161,51.161,0,0,1-14.536-1.8,1.891,1.891,0,0,0-2.437,2.106c1.087,6.484,9.815,11.012,16.973,11.012S50.01,49.419,51.112,42.935A1.9,1.9,0,0,0,48.675,40.829ZM16.367,35.212a1.647,1.647,0,0,0,2.106.344l11.012-6.607a1.658,1.658,0,0,0,0-2.836L18.473,19.506a1.654,1.654,0,0,0-2.12,2.478l4.625,5.548-4.625,5.548A1.647,1.647,0,0,0,16.367,35.212Zm33.437.344a1.654,1.654,0,0,0,2.12-2.478L47.3,27.531l4.625-5.548a1.647,1.647,0,0,0-.014-2.134,1.679,1.679,0,0,0-2.106-.344L38.791,26.113a1.658,1.658,0,0,0,0,2.836L49.8,35.557Z" transform="translate(-64.687 149.812) rotate(-25)" fill="#fff700"/>
    </g>
    <g id="response2" transform="translate(224.673 225.804)">
      <g transform="matrix(1.16, -0.11, 0.21, 1, -279.32, -211.57)" filter="url(#comment2)">
        <path id="comment2-2" data-name="comment2" d="M346.2,0H27.6C8.578,0-6.842,14.772-6.842,32.995V85.237c0,18.223,15.421,32.995,34.443,32.995l366.738.42c19.022,0-13.7-15.193-13.7-33.415V32.995C380.644,14.772,365.223,0,346.2,0Z" transform="matrix(0.84, 0.09, -0.18, 0.98, 203.94, 232.1)" fill="#fff"/>
      </g>
      <g id="line5-2" data-name="line5" transform="matrix(1, 0, 0, 1, 215.843, 58.068)" fill="#707070" stroke="#707070" stroke-width="1">
        <rect width="135.938" height="7.996" stroke="none"/>
        <rect x="0.5" y="0.5" width="134.938" height="6.996" fill="none"/>
      </g>
      <g id="line4-2" data-name="line4" transform="matrix(1, 0, 0, 1, 35.925, 58.068)" fill="#707070" stroke="#707070" stroke-width="1">
        <rect width="147.933" height="7.996" stroke="none"/>
        <rect x="0.5" y="0.5" width="146.933" height="6.996" fill="none"/>
      </g>
      <g id="line3-2" data-name="line3" transform="matrix(1, 0, 0, 1, 143.876, 88.054)" fill="#707070" stroke="#707070" stroke-width="1">
        <rect width="207.906" height="7.996" stroke="none"/>
        <rect x="0.5" y="0.5" width="206.906" height="6.996" fill="none"/>
      </g>
      <g id="line2-2" data-name="line2" transform="matrix(1, 0, 0, 1, 35.925, 88.054)" fill="#707070" stroke="#707070" stroke-width="1">
        <rect width="71.967" height="7.996" stroke="none"/>
        <rect x="0.5" y="0.5" width="70.967" height="6.996" fill="none"/>
      </g>
      <g id="line1-2" data-name="line1" transform="matrix(1, 0, 0, 1, 31.641, 28.081)" fill="#707070" stroke="#707070" stroke-width="1">
        <rect width="319.855" height="7.996" stroke="none"/>
        <rect x="0.5" y="0.5" width="318.855" height="6.996" fill="none"/>
      </g>
      <path id="user2" d="M48.683,40.836a51.1,51.1,0,0,1-14.539,1.8,51.17,51.17,0,0,1-14.539-1.8,1.891,1.891,0,0,0-2.437,2.106c1.088,6.5,9.817,11.014,16.976,11.014s15.874-4.53,16.976-11.014A1.9,1.9,0,0,0,48.683,40.836ZM27.646,34.1a1.2,1.2,0,0,0,1.446-.826l2.671-9.624A4.871,4.871,0,0,0,27.8,17.527a5.229,5.229,0,0,0-5.714,3.841l-.275.978-.978-.262a5.207,5.207,0,0,0-6.182,3.029,4.881,4.881,0,0,0,3.332,6.5L27.646,34.1Zm25.994-8.99a5.221,5.221,0,0,0-6.182-3.029l-.978.262-.275-.978a5.212,5.212,0,0,0-5.714-3.841,4.871,4.871,0,0,0-3.965,6.127L39.2,33.277a1.183,1.183,0,0,0,1.446.826L50.308,31.6a4.867,4.867,0,0,0,3.332-6.485ZM34.145,0A34.145,34.145,0,1,0,68.289,34.145,34.139,34.139,0,0,0,34.145,0Zm0,61.68A27.536,27.536,0,1,1,61.68,34.145,27.564,27.564,0,0,1,34.145,61.68Z" transform="translate(404.87 70.439) rotate(20)" fill="#ff5d5d"/>
    </g>
    <g id="response1" transform="translate(64.687 375.83)">
      <g transform="matrix(1.16, -0.11, 0.21, 1, -119.34, -361.59)" filter="url(#comment1)">
        <path id="comment1-2" data-name="comment1" d="M68.493,0h443.8c26.5,0,47.978,28.078,47.978,62.714v99.3c0,34.636-21.481,62.714-47.978,62.714l-510.854.8c-26.5,0,19.077-28.877,19.077-63.513v-99.3C20.515,28.078,42,0,68.493,0Z" transform="matrix(0.84, 0.09, -0.18, 0.98, 42.47, 364.51)" fill="#fff"/>
      </g>
      <g id="line9" transform="matrix(1, 0, 0, 1, 79.334, 67.969)" fill="#707070" stroke="#707070" stroke-width="1">
        <rect width="143.935" height="7.996" stroke="none"/>
        <rect x="0.5" y="0.5" width="142.935" height="6.996" fill="none"/>
      </g>
      <g id="line8-2" data-name="line8" transform="matrix(1, 0, 0, 1, 371.201, 191.913)" fill="#707070" stroke="#707070" stroke-width="1">
        <rect width="143.935" height="7.996" stroke="none"/>
        <rect x="0.5" y="0.5" width="142.935" height="6.996" fill="none"/>
      </g>
      <g id="line7-2" data-name="line7" transform="matrix(1, 0, 0, 1, 259.252, 67.969)" fill="#707070" stroke="#707070" stroke-width="1">
        <rect width="255.884" height="7.996" stroke="none"/>
        <rect x="0.5" y="0.5" width="254.884" height="6.996" fill="none"/>
      </g>
      <g id="line6-2" data-name="line6" transform="matrix(1, 0, 0, 1, 79.334, 191.913)" fill="#707070" stroke="#707070" stroke-width="1">
        <rect width="255.884" height="7.996" stroke="none"/>
        <rect x="0.5" y="0.5" width="254.884" height="6.996" fill="none"/>
      </g>
      <g id="line5-3" data-name="line5" transform="matrix(1, 0, 0, 1, 79.334, 111.949)" fill="#707070" stroke="#707070" stroke-width="1">
        <rect width="435.802" height="7.996" stroke="none"/>
        <rect x="0.5" y="0.5" width="434.802" height="6.996" fill="none"/>
      </g>
      <g id="line4-3" data-name="line4" transform="matrix(1, 0, 0, 1, 79.334, 27.987)" fill="#707070" stroke="#707070" stroke-width="1">
        <rect width="435.802" height="7.996" stroke="none"/>
        <rect x="0.5" y="0.5" width="434.802" height="6.996" fill="none"/>
      </g>
      <g id="line3-3" data-name="line3" transform="matrix(1, 0, 0, 1, 79.334, 151.931)" fill="#707070" stroke="#707070" stroke-width="1">
        <rect width="55.975" height="7.996" stroke="none"/>
        <rect x="0.5" y="0.5" width="54.975" height="6.996" fill="none"/>
      </g>
      <g id="line2-3" data-name="line2" transform="matrix(1, 0, 0, 1, 171.292, 151.931)" fill="#707070" stroke="#707070" stroke-width="1">
        <rect width="147.933" height="7.996" stroke="none"/>
        <rect x="0.5" y="0.5" width="146.933" height="6.996" fill="none"/>
      </g>
      <g id="line1-3" data-name="line1" transform="matrix(1, 0, 0, 1, 363.205, 151.931)" fill="#707070" stroke="#707070" stroke-width="1">
        <rect width="151.931" height="7.996" stroke="none"/>
        <rect x="0.5" y="0.5" width="150.931" height="6.996" fill="none"/>
      </g>
      <path id="user1" d="M0,34.145A34.145,34.145,0,1,0,34.145,0,34.139,34.139,0,0,0,0,34.145Zm27.536-6.609A4.406,4.406,0,1,1,23.13,23.13,4.4,4.4,0,0,1,27.536,27.536Zm21.822,2.272c-2.038-1.817-6.361-1.817-8.4,0l-1.308,1.17a1.649,1.649,0,0,1-2.726-1.487c.551-3.47,4.709-5.8,8.247-5.8s7.7,2.327,8.247,5.8a1.649,1.649,0,0,1-2.726,1.487ZM21.726,43.755a16.177,16.177,0,0,0,24.837,0,2.2,2.2,0,0,1,3.387,2.822,20.579,20.579,0,0,1-31.611-.014,2.2,2.2,0,0,1,3.387-2.809Z" transform="translate(-56.513 187.798) rotate(-7)" fill="lime"/>
    </g>
  </g>
</svg>
